<mxfile host="65bd71144e">
    <diagram name="Page-1" id="zgPM7gteZOa85ShXtozd">
        <mxGraphModel dx="845" dy="772" grid="1" gridSize="10" guides="1" tooltips="1" connect="1" arrows="1" fold="1" page="1" pageScale="1" pageWidth="827" pageHeight="1169" math="0" shadow="0">
            <root>
                <mxCell id="0"/>
                <mxCell id="1" parent="0"/>
                <mxCell id="y4FErGMZdrNjEpd-4QFK-19" style="edgeStyle=orthogonalEdgeStyle;rounded=0;orthogonalLoop=1;jettySize=auto;html=1;" parent="1" source="y4FErGMZdrNjEpd-4QFK-3" target="y4FErGMZdrNjEpd-4QFK-18" edge="1">
                    <mxGeometry relative="1" as="geometry"/>
                </mxCell>
                <mxCell id="y4FErGMZdrNjEpd-4QFK-3" value="Start" style="rounded=1;whiteSpace=wrap;html=1;fillColor=#1ba1e2;fontColor=#ffffff;strokeColor=#006EAF;" parent="1" vertex="1">
                    <mxGeometry x="340" y="30" width="120" height="40" as="geometry"/>
                </mxCell>
                <mxCell id="y4FErGMZdrNjEpd-4QFK-7" value="" style="edgeStyle=orthogonalEdgeStyle;rounded=0;orthogonalLoop=1;jettySize=auto;html=1;" parent="1" source="y4FErGMZdrNjEpd-4QFK-4" target="y4FErGMZdrNjEpd-4QFK-6" edge="1">
                    <mxGeometry relative="1" as="geometry"/>
                </mxCell>
                <mxCell id="y4FErGMZdrNjEpd-4QFK-4" value="Declare Variable, Letter, lives" style="whiteSpace=wrap;html=1;rounded=1;" parent="1" vertex="1">
                    <mxGeometry x="340" y="230" width="120" height="40" as="geometry"/>
                </mxCell>
                <mxCell id="y4FErGMZdrNjEpd-4QFK-9" value="" style="edgeStyle=orthogonalEdgeStyle;rounded=0;orthogonalLoop=1;jettySize=auto;html=1;" parent="1" source="y4FErGMZdrNjEpd-4QFK-6" target="y4FErGMZdrNjEpd-4QFK-8" edge="1">
                    <mxGeometry relative="1" as="geometry"/>
                </mxCell>
                <mxCell id="y4FErGMZdrNjEpd-4QFK-6" value="Read Letter" style="shape=parallelogram;perimeter=parallelogramPerimeter;whiteSpace=wrap;html=1;fixedSize=1;rounded=1;" parent="1" vertex="1">
                    <mxGeometry x="340" y="330" width="120" height="60" as="geometry"/>
                </mxCell>
                <mxCell id="y4FErGMZdrNjEpd-4QFK-11" value="" style="edgeStyle=orthogonalEdgeStyle;rounded=0;orthogonalLoop=1;jettySize=auto;html=1;" parent="1" source="y4FErGMZdrNjEpd-4QFK-8" target="y4FErGMZdrNjEpd-4QFK-10" edge="1">
                    <mxGeometry relative="1" as="geometry"/>
                </mxCell>
                <mxCell id="y4FErGMZdrNjEpd-4QFK-12" value="True" style="edgeLabel;html=1;align=center;verticalAlign=middle;resizable=0;points=[];" parent="y4FErGMZdrNjEpd-4QFK-11" vertex="1" connectable="0">
                    <mxGeometry x="-0.2159" y="-1" relative="1" as="geometry">
                        <mxPoint as="offset"/>
                    </mxGeometry>
                </mxCell>
                <mxCell id="y4FErGMZdrNjEpd-4QFK-14" value="" style="edgeStyle=orthogonalEdgeStyle;rounded=0;orthogonalLoop=1;jettySize=auto;html=1;" parent="1" source="y4FErGMZdrNjEpd-4QFK-8" target="y4FErGMZdrNjEpd-4QFK-13" edge="1">
                    <mxGeometry relative="1" as="geometry"/>
                </mxCell>
                <mxCell id="y4FErGMZdrNjEpd-4QFK-15" value="False" style="edgeLabel;html=1;align=center;verticalAlign=middle;resizable=0;points=[];" parent="y4FErGMZdrNjEpd-4QFK-14" vertex="1" connectable="0">
                    <mxGeometry x="-0.26" y="-2" relative="1" as="geometry">
                        <mxPoint as="offset"/>
                    </mxGeometry>
                </mxCell>
                <mxCell id="y4FErGMZdrNjEpd-4QFK-8" value="is Letter in the word?" style="rhombus;whiteSpace=wrap;html=1;rounded=1;" parent="1" vertex="1">
                    <mxGeometry x="345" y="505" width="110" height="90" as="geometry"/>
                </mxCell>
                <mxCell id="8" value="" style="edgeStyle=none;html=1;" edge="1" parent="1" source="y4FErGMZdrNjEpd-4QFK-10" target="7">
                    <mxGeometry relative="1" as="geometry"/>
                </mxCell>
                <mxCell id="y4FErGMZdrNjEpd-4QFK-10" value="Show the word&lt;div&gt;with the letter&amp;nbsp;&lt;/div&gt;&lt;div&gt;added.&lt;/div&gt;&lt;div&gt;Is the word&amp;nbsp;&lt;/div&gt;&lt;div&gt;completed?&lt;/div&gt;" style="rhombus;whiteSpace=wrap;html=1;rounded=1;" parent="1" vertex="1">
                    <mxGeometry x="520" y="470" width="160" height="160" as="geometry"/>
                </mxCell>
                <mxCell id="6" value="False" style="edgeStyle=none;html=1;" edge="1" parent="1" source="y4FErGMZdrNjEpd-4QFK-13" target="5">
                    <mxGeometry relative="1" as="geometry"/>
                </mxCell>
                <mxCell id="y4FErGMZdrNjEpd-4QFK-13" value="Add more one&amp;nbsp;&lt;div&gt;part of the man&lt;/div&gt;&lt;div&gt;Life -1&lt;/div&gt;&lt;div&gt;Still have life?&lt;/div&gt;" style="rhombus;whiteSpace=wrap;html=1;rounded=1;" parent="1" vertex="1">
                    <mxGeometry x="130" y="470" width="160" height="160" as="geometry"/>
                </mxCell>
                <mxCell id="y4FErGMZdrNjEpd-4QFK-21" style="edgeStyle=orthogonalEdgeStyle;rounded=0;orthogonalLoop=1;jettySize=auto;html=1;entryX=0.5;entryY=0;entryDx=0;entryDy=0;" parent="1" source="y4FErGMZdrNjEpd-4QFK-18" target="y4FErGMZdrNjEpd-4QFK-4" edge="1">
                    <mxGeometry relative="1" as="geometry"/>
                </mxCell>
                <mxCell id="y4FErGMZdrNjEpd-4QFK-18" value="Select one work from the list of words" style="rounded=1;whiteSpace=wrap;html=1;" parent="1" vertex="1">
                    <mxGeometry x="340" y="120" width="120" height="60" as="geometry"/>
                </mxCell>
                <mxCell id="y4FErGMZdrNjEpd-4QFK-40" value="" style="edgeStyle=elbowEdgeStyle;elbow=vertical;endArrow=classic;html=1;curved=0;rounded=0;endSize=8;startSize=8;exitX=0.498;exitY=0.049;exitDx=0;exitDy=0;exitPerimeter=0;" parent="1" source="y4FErGMZdrNjEpd-4QFK-10" target="y4FErGMZdrNjEpd-4QFK-6" edge="1">
                    <mxGeometry width="50" height="50" relative="1" as="geometry">
                        <mxPoint x="620" y="540" as="sourcePoint"/>
                        <mxPoint x="430" y="370" as="targetPoint"/>
                        <Array as="points">
                            <mxPoint x="560" y="360"/>
                        </Array>
                    </mxGeometry>
                </mxCell>
                <mxCell id="y4FErGMZdrNjEpd-4QFK-41" value="False" style="edgeLabel;html=1;align=center;verticalAlign=middle;resizable=0;points=[];" parent="y4FErGMZdrNjEpd-4QFK-40" vertex="1" connectable="0">
                    <mxGeometry x="-0.2151" y="2" relative="1" as="geometry">
                        <mxPoint as="offset"/>
                    </mxGeometry>
                </mxCell>
                <mxCell id="3" value="" style="edgeStyle=elbowEdgeStyle;elbow=horizontal;endArrow=classic;html=1;curved=0;rounded=0;endSize=8;startSize=8;exitX=0.5;exitY=0;exitDx=0;exitDy=0;entryX=0;entryY=0.5;entryDx=0;entryDy=0;" edge="1" parent="1" source="y4FErGMZdrNjEpd-4QFK-13" target="y4FErGMZdrNjEpd-4QFK-6">
                    <mxGeometry width="50" height="50" relative="1" as="geometry">
                        <mxPoint x="420" y="350" as="sourcePoint"/>
                        <mxPoint x="210" y="370" as="targetPoint"/>
                        <Array as="points">
                            <mxPoint x="210" y="380"/>
                            <mxPoint x="210" y="460"/>
                        </Array>
                    </mxGeometry>
                </mxCell>
                <mxCell id="4" value="True" style="edgeLabel;html=1;align=center;verticalAlign=middle;resizable=0;points=[];" vertex="1" connectable="0" parent="3">
                    <mxGeometry x="-0.25" y="1" relative="1" as="geometry">
                        <mxPoint as="offset"/>
                    </mxGeometry>
                </mxCell>
                <mxCell id="5" value="You lose" style="shape=parallelogram;perimeter=parallelogramPerimeter;whiteSpace=wrap;html=1;fixedSize=1;rounded=1;" vertex="1" parent="1">
                    <mxGeometry x="150" y="710" width="120" height="60" as="geometry"/>
                </mxCell>
                <mxCell id="7" value="You won" style="shape=parallelogram;perimeter=parallelogramPerimeter;whiteSpace=wrap;html=1;fixedSize=1;rounded=1;" vertex="1" parent="1">
                    <mxGeometry x="540" y="710" width="120" height="60" as="geometry"/>
                </mxCell>
            </root>
        </mxGraphModel>
    </diagram>
</mxfile>